<?xml version="1.0" standalone="no"?>
<!DOCTYPE svg PUBLIC "-//W3C//DTD SVG 20010904//EN"
 "http://www.w3.org/TR/2001/REC-SVG-20010904/DTD/svg10.dtd">
<svg version="1.0" xmlns="http://www.w3.org/2000/svg"
 width="500.000000pt" height="500.000000pt" viewBox="0 0 500.000000 500.000000"
 preserveAspectRatio="xMidYMid meet">

<g transform="translate(0.000000,500.000000) scale(0.100000,-0.100000)"
fill="#000000" stroke="none">
<path d="M135 4976 c-60 -28 -87 -56 -114 -116 -21 -45 -21 -51 -21 -2360 l0
-2315 24 -50 c28 -60 56 -87 116 -114 45 -21 51 -21 2360 -21 l2315 0 50 24
c60 28 87 56 114 116 21 45 21 51 21 2360 0 2309 0 2315 -21 2360 -27 60 -54
88 -114 116 l-50 24 -2315 0 -2315 0 -50 -24z m4710 -69 c26 -14 48 -37 62
-67 l23 -44 0 -2296 0 -2296 -22 -44 c-15 -30 -37 -53 -63 -67 l-40 -23 -2305
0 -2305 0 -40 23 c-26 14 -48 37 -62 67 l-23 44 0 2296 0 2296 23 44 c14 30
36 53 62 67 l40 23 2305 0 2305 0 40 -23z"/>
</g>
</svg>
